<mxfile host="app.diagrams.net" modified="2024-04-18T08:06:37.932Z" agent="Mozilla/5.0 (Windows NT 10.0; Win64; x64) AppleWebKit/537.36 (KHTML, like Gecko) Chrome/125.0.0.0 Safari/537.36" etag="1i2Ij8PBlNtcb0E21Drn" version="24.2.5" type="github">
  <diagram id="OeJn_wqeB_ocoQftmaz3" name="Page-1">
    <mxGraphModel dx="3328" dy="796" grid="1" gridSize="10" guides="1" tooltips="1" connect="1" arrows="1" fold="1" page="1" pageScale="1" pageWidth="827" pageHeight="1169" math="0" shadow="0">
      <root>
        <mxCell id="0" />
        <mxCell id="1" parent="0" />
        <mxCell id="EKZtwJC5HsWuITXdFsov-1" value="" style="ellipse;whiteSpace=wrap;html=1;" parent="1" vertex="1">
          <mxGeometry x="460" y="800" width="120" height="80" as="geometry" />
        </mxCell>
        <mxCell id="02Z97jrN1RB8Ewi5QRuN-5" value="" style="edgeStyle=none;curved=1;rounded=0;orthogonalLoop=1;jettySize=auto;html=1;fontSize=12;startSize=8;endSize=8;" parent="1" source="02Z97jrN1RB8Ewi5QRuN-1" target="02Z97jrN1RB8Ewi5QRuN-4" edge="1">
          <mxGeometry relative="1" as="geometry" />
        </mxCell>
        <mxCell id="02Z97jrN1RB8Ewi5QRuN-1" value="ReactElement" style="ellipse;whiteSpace=wrap;html=1;" parent="1" vertex="1">
          <mxGeometry x="-1180" y="150" width="120" height="80" as="geometry" />
        </mxCell>
        <mxCell id="02Z97jrN1RB8Ewi5QRuN-7" value="" style="edgeStyle=none;curved=1;rounded=0;orthogonalLoop=1;jettySize=auto;html=1;fontSize=12;startSize=8;endSize=8;" parent="1" source="02Z97jrN1RB8Ewi5QRuN-4" target="02Z97jrN1RB8Ewi5QRuN-6" edge="1">
          <mxGeometry relative="1" as="geometry" />
        </mxCell>
        <mxCell id="02Z97jrN1RB8Ewi5QRuN-4" value="fiber" style="ellipse;whiteSpace=wrap;html=1;" parent="1" vertex="1">
          <mxGeometry x="-1010" y="150" width="120" height="80" as="geometry" />
        </mxCell>
        <mxCell id="02Z97jrN1RB8Ewi5QRuN-9" value="" style="edgeStyle=none;curved=1;rounded=0;orthogonalLoop=1;jettySize=auto;html=1;fontSize=12;startSize=8;endSize=8;" parent="1" source="02Z97jrN1RB8Ewi5QRuN-6" target="02Z97jrN1RB8Ewi5QRuN-8" edge="1">
          <mxGeometry relative="1" as="geometry" />
        </mxCell>
        <mxCell id="02Z97jrN1RB8Ewi5QRuN-6" value="workInprogress" style="ellipse;whiteSpace=wrap;html=1;" parent="1" vertex="1">
          <mxGeometry x="-840" y="150" width="120" height="80" as="geometry" />
        </mxCell>
        <mxCell id="02Z97jrN1RB8Ewi5QRuN-11" value="" style="edgeStyle=none;curved=1;rounded=0;orthogonalLoop=1;jettySize=auto;html=1;fontSize=12;startSize=8;endSize=8;entryX=1;entryY=0.5;entryDx=0;entryDy=0;" parent="1" target="02Z97jrN1RB8Ewi5QRuN-12" edge="1">
          <mxGeometry relative="1" as="geometry">
            <mxPoint x="-800" y="359.5" as="sourcePoint" />
            <mxPoint x="-900" y="359.5" as="targetPoint" />
          </mxGeometry>
        </mxCell>
        <mxCell id="02Z97jrN1RB8Ewi5QRuN-8" value="App组件执行" style="ellipse;whiteSpace=wrap;html=1;" parent="1" vertex="1">
          <mxGeometry x="-840" y="320" width="120" height="80" as="geometry" />
        </mxCell>
        <mxCell id="02Z97jrN1RB8Ewi5QRuN-14" value="" style="edgeStyle=none;curved=1;rounded=0;orthogonalLoop=1;jettySize=auto;html=1;fontSize=12;startSize=8;endSize=8;" parent="1" source="02Z97jrN1RB8Ewi5QRuN-12" target="02Z97jrN1RB8Ewi5QRuN-13" edge="1">
          <mxGeometry relative="1" as="geometry" />
        </mxCell>
        <mxCell id="02Z97jrN1RB8Ewi5QRuN-12" value="创建ProviderElement" style="rounded=0;whiteSpace=wrap;html=1;" parent="1" vertex="1">
          <mxGeometry x="-1160" y="305" width="240" height="110" as="geometry" />
        </mxCell>
        <mxCell id="02Z97jrN1RB8Ewi5QRuN-16" value="" style="edgeStyle=none;curved=1;rounded=0;orthogonalLoop=1;jettySize=auto;html=1;fontSize=12;startSize=8;endSize=8;" parent="1" source="02Z97jrN1RB8Ewi5QRuN-13" target="02Z97jrN1RB8Ewi5QRuN-15" edge="1">
          <mxGeometry relative="1" as="geometry" />
        </mxCell>
        <mxCell id="02Z97jrN1RB8Ewi5QRuN-13" value="providerFiber" style="whiteSpace=wrap;html=1;rounded=0;" parent="1" vertex="1">
          <mxGeometry x="-1340" y="330" width="120" height="60" as="geometry" />
        </mxCell>
        <mxCell id="02Z97jrN1RB8Ewi5QRuN-18" value="" style="edgeStyle=none;curved=1;rounded=0;orthogonalLoop=1;jettySize=auto;html=1;fontSize=12;startSize=8;endSize=8;" parent="1" source="02Z97jrN1RB8Ewi5QRuN-15" target="02Z97jrN1RB8Ewi5QRuN-17" edge="1">
          <mxGeometry relative="1" as="geometry" />
        </mxCell>
        <mxCell id="02Z97jrN1RB8Ewi5QRuN-15" value="处理context值；&lt;div&gt;调用pushProvider 存储当前值&lt;/div&gt;" style="whiteSpace=wrap;html=1;rounded=0;" parent="1" vertex="1">
          <mxGeometry x="-1340" y="510" width="120" height="60" as="geometry" />
        </mxCell>
        <mxCell id="02Z97jrN1RB8Ewi5QRuN-20" value="" style="edgeStyle=none;curved=1;rounded=0;orthogonalLoop=1;jettySize=auto;html=1;fontSize=12;startSize=8;endSize=8;" parent="1" source="02Z97jrN1RB8Ewi5QRuN-17" target="02Z97jrN1RB8Ewi5QRuN-19" edge="1">
          <mxGeometry relative="1" as="geometry" />
        </mxCell>
        <mxCell id="02Z97jrN1RB8Ewi5QRuN-17" value="继续子Element。子Element 完毕" style="whiteSpace=wrap;html=1;rounded=0;" parent="1" vertex="1">
          <mxGeometry x="-1100" y="510" width="120" height="60" as="geometry" />
        </mxCell>
        <mxCell id="02Z97jrN1RB8Ewi5QRuN-19" value="进入completeWork&lt;br&gt;恢复Provider的context" style="whiteSpace=wrap;html=1;rounded=0;" parent="1" vertex="1">
          <mxGeometry x="-860" y="510" width="120" height="60" as="geometry" />
        </mxCell>
        <mxCell id="qUqdvUFnJxIICbG7kpp2-2" value="" style="rounded=1;whiteSpace=wrap;html=1;" vertex="1" parent="1">
          <mxGeometry x="-1420" y="1000" width="520" height="220" as="geometry" />
        </mxCell>
        <mxCell id="qUqdvUFnJxIICbG7kpp2-11" style="edgeStyle=none;curved=1;rounded=0;orthogonalLoop=1;jettySize=auto;html=1;exitX=1;exitY=0.5;exitDx=0;exitDy=0;entryX=0;entryY=0.5;entryDx=0;entryDy=0;fontSize=12;startSize=8;endSize=8;" edge="1" parent="1" source="qUqdvUFnJxIICbG7kpp2-5" target="qUqdvUFnJxIICbG7kpp2-7">
          <mxGeometry relative="1" as="geometry">
            <mxPoint x="-1020" y="1102.5" as="sourcePoint" />
            <mxPoint x="-630" y="1040" as="targetPoint" />
            <Array as="points">
              <mxPoint x="-730" y="1010" />
            </Array>
          </mxGeometry>
        </mxCell>
        <mxCell id="qUqdvUFnJxIICbG7kpp2-5" value="ReactCurrentDispatcher" style="rounded=1;whiteSpace=wrap;html=1;" vertex="1" parent="1">
          <mxGeometry x="-1200" y="1055" width="160" height="60" as="geometry" />
        </mxCell>
        <mxCell id="qUqdvUFnJxIICbG7kpp2-6" value="&lt;span style=&quot;font-size: 12px;&quot;&gt;ReactSharedInternals&lt;/span&gt;" style="text;html=1;align=center;verticalAlign=middle;whiteSpace=wrap;rounded=0;fontSize=16;" vertex="1" parent="1">
          <mxGeometry x="-1280" y="1010" width="190" height="30" as="geometry" />
        </mxCell>
        <mxCell id="qUqdvUFnJxIICbG7kpp2-7" value="" style="rounded=1;whiteSpace=wrap;html=1;" vertex="1" parent="1">
          <mxGeometry x="-660" y="999" width="380" height="170" as="geometry" />
        </mxCell>
        <mxCell id="qUqdvUFnJxIICbG7kpp2-9" value="ReactCurrentDispatcher$2" style="text;html=1;align=center;verticalAlign=middle;whiteSpace=wrap;rounded=0;fontSize=16;" vertex="1" parent="1">
          <mxGeometry x="-613" y="1020" width="200" height="30" as="geometry" />
        </mxCell>
        <mxCell id="qUqdvUFnJxIICbG7kpp2-14" style="edgeStyle=none;curved=1;rounded=0;orthogonalLoop=1;jettySize=auto;html=1;exitX=0.75;exitY=1;exitDx=0;exitDy=0;entryX=0.5;entryY=0;entryDx=0;entryDy=0;fontSize=12;startSize=8;endSize=8;" edge="1" parent="1" source="qUqdvUFnJxIICbG7kpp2-10" target="qUqdvUFnJxIICbG7kpp2-13">
          <mxGeometry relative="1" as="geometry">
            <Array as="points">
              <mxPoint x="-370" y="1180" />
            </Array>
          </mxGeometry>
        </mxCell>
        <mxCell id="qUqdvUFnJxIICbG7kpp2-10" value="current" style="rounded=1;whiteSpace=wrap;html=1;" vertex="1" parent="1">
          <mxGeometry x="-600" y="1070" width="120" height="60" as="geometry" />
        </mxCell>
        <mxCell id="qUqdvUFnJxIICbG7kpp2-12" style="edgeStyle=none;curved=1;rounded=0;orthogonalLoop=1;jettySize=auto;html=1;exitX=0;exitY=0.75;exitDx=0;exitDy=0;fontSize=12;startSize=8;endSize=8;" edge="1" parent="1" source="qUqdvUFnJxIICbG7kpp2-9" target="qUqdvUFnJxIICbG7kpp2-9">
          <mxGeometry relative="1" as="geometry" />
        </mxCell>
        <mxCell id="qUqdvUFnJxIICbG7kpp2-13" value="ContextOnlyDispatcher" style="rounded=1;whiteSpace=wrap;html=1;" vertex="1" parent="1">
          <mxGeometry x="-490" y="1280" width="210" height="60" as="geometry" />
        </mxCell>
      </root>
    </mxGraphModel>
  </diagram>
</mxfile>
